<mxfile host="app.diagrams.net" modified="2021-03-24T23:09:34.803Z" agent="5.0 (Windows NT 10.0; Win64; x64) AppleWebKit/537.36 (KHTML, like Gecko) Chrome/89.0.4389.90 Safari/537.36 Edg/89.0.774.54" etag="0GHqzI_FTJdo9FoF0HEu" version="14.4.9" type="github">
  <diagram id="C5RBs43oDa-KdzZeNtuy" name="Page-1">
    <mxGraphModel dx="1038" dy="548" grid="1" gridSize="10" guides="1" tooltips="1" connect="1" arrows="1" fold="1" page="1" pageScale="1" pageWidth="827" pageHeight="1169" math="0" shadow="0">
      <root>
        <mxCell id="WIyWlLk6GJQsqaUBKTNV-0" />
        <mxCell id="WIyWlLk6GJQsqaUBKTNV-1" parent="WIyWlLk6GJQsqaUBKTNV-0" />
        <mxCell id="3m3be9xizB8azZANUTa2-61" value="" style="group;fontSize=12;" vertex="1" connectable="0" parent="WIyWlLk6GJQsqaUBKTNV-1">
          <mxGeometry x="30" y="57.5" width="700" height="462.5" as="geometry" />
        </mxCell>
        <mxCell id="3m3be9xizB8azZANUTa2-47" value="&lt;br style=&quot;font-size: 12px;&quot;&gt;Gold job success" style="rhombus;whiteSpace=wrap;html=1;shadow=0;fontFamily=Helvetica;fontSize=12;align=center;strokeWidth=1;spacing=6;spacingTop=-4;fillColor=#FFC048;" vertex="1" parent="3m3be9xizB8azZANUTa2-61">
          <mxGeometry x="210" y="357.5" width="100" height="80" as="geometry" />
        </mxCell>
        <mxCell id="WIyWlLk6GJQsqaUBKTNV-3" value="Lrp-orchestrator" style="rounded=1;whiteSpace=wrap;html=1;fontSize=12;glass=0;strokeWidth=1;shadow=1;fillColor=#E1F5FE;" parent="3m3be9xizB8azZANUTa2-61" vertex="1">
          <mxGeometry x="130" y="22.5" width="120" height="40" as="geometry" />
        </mxCell>
        <mxCell id="3m3be9xizB8azZANUTa2-0" value="Start" style="strokeWidth=2;html=1;shape=mxgraph.flowchart.start_2;whiteSpace=wrap;fillColor=#4DA1F5;fontSize=12;" vertex="1" parent="3m3be9xizB8azZANUTa2-61">
          <mxGeometry y="15" width="50" height="55" as="geometry" />
        </mxCell>
        <mxCell id="3m3be9xizB8azZANUTa2-2" value="blob Storage" style="strokeWidth=2;html=1;shape=mxgraph.flowchart.database;whiteSpace=wrap;fillColor=#4DA1F6;fontSize=12;" vertex="1" parent="3m3be9xizB8azZANUTa2-61">
          <mxGeometry x="370" width="60" height="70" as="geometry" />
        </mxCell>
        <mxCell id="3m3be9xizB8azZANUTa2-3" value="" style="endArrow=classic;html=1;exitX=1;exitY=0.5;exitDx=0;exitDy=0;exitPerimeter=0;entryX=0;entryY=0.5;entryDx=0;entryDy=0;fontSize=12;" edge="1" parent="3m3be9xizB8azZANUTa2-61" source="3m3be9xizB8azZANUTa2-0" target="WIyWlLk6GJQsqaUBKTNV-3">
          <mxGeometry width="50" height="50" relative="1" as="geometry">
            <mxPoint x="60" y="82.5" as="sourcePoint" />
            <mxPoint x="110" y="32.5" as="targetPoint" />
          </mxGeometry>
        </mxCell>
        <mxCell id="3m3be9xizB8azZANUTa2-10" value="" style="endArrow=classic;html=1;entryX=0.5;entryY=0;entryDx=0;entryDy=0;exitX=0.5;exitY=1;exitDx=0;exitDy=0;fontSize=12;" edge="1" parent="3m3be9xizB8azZANUTa2-61" source="WIyWlLk6GJQsqaUBKTNV-3" target="3m3be9xizB8azZANUTa2-13">
          <mxGeometry relative="1" as="geometry">
            <mxPoint x="-30" y="84.56" as="sourcePoint" />
            <mxPoint x="239.5999999999999" y="82.50000000000006" as="targetPoint" />
          </mxGeometry>
        </mxCell>
        <mxCell id="3m3be9xizB8azZANUTa2-11" value="source key ready&amp;nbsp;" style="shape=message;html=1;outlineConnect=0;fontSize=12;" vertex="1" parent="3m3be9xizB8azZANUTa2-10">
          <mxGeometry width="20" height="14" relative="1" as="geometry">
            <mxPoint x="-10" y="-7" as="offset" />
          </mxGeometry>
        </mxCell>
        <mxCell id="3m3be9xizB8azZANUTa2-13" value="Transformer service Input Event hub topic" style="ellipse;whiteSpace=wrap;html=1;shadow=1;fillColor=#E1F5FE;fontSize=12;" vertex="1" parent="3m3be9xizB8azZANUTa2-61">
          <mxGeometry x="130" y="112.5" width="120" height="70" as="geometry" />
        </mxCell>
        <mxCell id="3m3be9xizB8azZANUTa2-57" value="Trigger Sillver" style="edgeStyle=orthogonalEdgeStyle;rounded=0;orthogonalLoop=1;jettySize=auto;html=1;entryX=0.824;entryY=0.075;entryDx=0;entryDy=0;entryPerimeter=0;fontSize=12;" edge="1" parent="3m3be9xizB8azZANUTa2-61" target="3m3be9xizB8azZANUTa2-19">
          <mxGeometry x="-0.0494" y="10" relative="1" as="geometry">
            <mxPoint x="450" y="173.5" as="sourcePoint" />
            <mxPoint as="offset" />
          </mxGeometry>
        </mxCell>
        <mxCell id="3m3be9xizB8azZANUTa2-14" value="Transformer service" style="rounded=1;whiteSpace=wrap;html=1;fontSize=12;glass=0;strokeWidth=1;shadow=0;fillColor=#E1F5FE;" vertex="1" parent="3m3be9xizB8azZANUTa2-61">
          <mxGeometry x="340" y="127.5" width="120" height="40" as="geometry" />
        </mxCell>
        <mxCell id="3m3be9xizB8azZANUTa2-43" value="" style="edgeStyle=orthogonalEdgeStyle;rounded=0;orthogonalLoop=1;jettySize=auto;html=1;fontSize=12;" edge="1" parent="3m3be9xizB8azZANUTa2-61" source="3m3be9xizB8azZANUTa2-13" target="3m3be9xizB8azZANUTa2-14">
          <mxGeometry relative="1" as="geometry" />
        </mxCell>
        <mxCell id="3m3be9xizB8azZANUTa2-19" value="Platform Job Orchestrator" style="rounded=1;whiteSpace=wrap;html=1;fontSize=12;glass=0;strokeWidth=1;shadow=1;fillColor=#E1F5FE;" vertex="1" parent="3m3be9xizB8azZANUTa2-61">
          <mxGeometry x="340" y="222.5" width="134" height="40" as="geometry" />
        </mxCell>
        <mxCell id="3m3be9xizB8azZANUTa2-58" value="Trigger gold" style="edgeStyle=orthogonalEdgeStyle;rounded=0;orthogonalLoop=1;jettySize=auto;html=1;exitX=0.107;exitY=1.13;exitDx=0;exitDy=0;exitPerimeter=0;entryX=0.096;entryY=0.035;entryDx=0;entryDy=0;entryPerimeter=0;fontSize=12;" edge="1" parent="3m3be9xizB8azZANUTa2-61" source="3m3be9xizB8azZANUTa2-14" target="3m3be9xizB8azZANUTa2-19">
          <mxGeometry relative="1" as="geometry" />
        </mxCell>
        <mxCell id="3m3be9xizB8azZANUTa2-24" value="1) Post job&lt;br style=&quot;font-size: 12px;&quot;&gt;2) Get job status" style="shape=note;whiteSpace=wrap;html=1;backgroundOutline=1;darkOpacity=0.05;shadow=1;fillColor=#F6F6F6;fontSize=12;" vertex="1" parent="3m3be9xizB8azZANUTa2-61">
          <mxGeometry x="510" y="172.5" width="60" height="50" as="geometry" />
        </mxCell>
        <mxCell id="3m3be9xizB8azZANUTa2-38" value="Yes/No" style="edgeStyle=orthogonalEdgeStyle;rounded=0;orthogonalLoop=1;jettySize=auto;html=1;entryX=1;entryY=0.5;entryDx=0;entryDy=0;exitX=1;exitY=0.5;exitDx=0;exitDy=0;fontSize=12;" edge="1" parent="3m3be9xizB8azZANUTa2-61" source="3m3be9xizB8azZANUTa2-25" target="3m3be9xizB8azZANUTa2-14">
          <mxGeometry x="-0.42" relative="1" as="geometry">
            <Array as="points">
              <mxPoint x="670" y="397.5" />
              <mxPoint x="670" y="147.5" />
            </Array>
            <mxPoint as="offset" />
          </mxGeometry>
        </mxCell>
        <mxCell id="3m3be9xizB8azZANUTa2-25" value="&lt;br style=&quot;font-size: 12px;&quot;&gt;Silver job success" style="rhombus;whiteSpace=wrap;html=1;shadow=0;fontFamily=Helvetica;fontSize=12;align=center;strokeWidth=1;spacing=6;spacingTop=-4;fillColor=#FFC048;" vertex="1" parent="3m3be9xizB8azZANUTa2-61">
          <mxGeometry x="530" y="357.5" width="100" height="80" as="geometry" />
        </mxCell>
        <mxCell id="3m3be9xizB8azZANUTa2-37" value="" style="edgeStyle=orthogonalEdgeStyle;rounded=0;orthogonalLoop=1;jettySize=auto;html=1;fontSize=12;" edge="1" parent="3m3be9xizB8azZANUTa2-61" source="3m3be9xizB8azZANUTa2-35" target="3m3be9xizB8azZANUTa2-25">
          <mxGeometry relative="1" as="geometry" />
        </mxCell>
        <mxCell id="3m3be9xizB8azZANUTa2-35" value="Silver job" style="rounded=1;whiteSpace=wrap;html=1;fontSize=12;glass=0;strokeWidth=1;shadow=1;fillColor=#C0C0C0;" vertex="1" parent="3m3be9xizB8azZANUTa2-61">
          <mxGeometry x="520" y="292.5" width="120" height="40" as="geometry" />
        </mxCell>
        <mxCell id="3m3be9xizB8azZANUTa2-36" value="" style="edgeStyle=orthogonalEdgeStyle;rounded=0;orthogonalLoop=1;jettySize=auto;html=1;fontSize=12;" edge="1" parent="3m3be9xizB8azZANUTa2-61" source="3m3be9xizB8azZANUTa2-19" target="3m3be9xizB8azZANUTa2-35">
          <mxGeometry relative="1" as="geometry" />
        </mxCell>
        <mxCell id="3m3be9xizB8azZANUTa2-48" value="" style="edgeStyle=orthogonalEdgeStyle;rounded=0;orthogonalLoop=1;jettySize=auto;html=1;fontSize=12;" edge="1" parent="3m3be9xizB8azZANUTa2-61" source="3m3be9xizB8azZANUTa2-41" target="3m3be9xizB8azZANUTa2-47">
          <mxGeometry relative="1" as="geometry" />
        </mxCell>
        <mxCell id="3m3be9xizB8azZANUTa2-41" value="Gold&amp;nbsp; job" style="rounded=1;whiteSpace=wrap;html=1;fontSize=12;glass=0;strokeWidth=1;shadow=1;fillColor=#F9F295;" vertex="1" parent="3m3be9xizB8azZANUTa2-61">
          <mxGeometry x="200" y="292.5" width="120" height="40" as="geometry" />
        </mxCell>
        <mxCell id="3m3be9xizB8azZANUTa2-53" style="edgeStyle=orthogonalEdgeStyle;rounded=0;orthogonalLoop=1;jettySize=auto;html=1;entryX=0.42;entryY=-0.035;entryDx=0;entryDy=0;entryPerimeter=0;fontSize=12;" edge="1" parent="3m3be9xizB8azZANUTa2-61" source="3m3be9xizB8azZANUTa2-19" target="3m3be9xizB8azZANUTa2-41">
          <mxGeometry relative="1" as="geometry">
            <Array as="points">
              <mxPoint x="250" y="242.5" />
            </Array>
          </mxGeometry>
        </mxCell>
        <mxCell id="3m3be9xizB8azZANUTa2-42" value="" style="endArrow=classic;startArrow=classic;html=1;entryX=0.5;entryY=1;entryDx=0;entryDy=0;entryPerimeter=0;fontSize=12;" edge="1" parent="3m3be9xizB8azZANUTa2-61" target="3m3be9xizB8azZANUTa2-2">
          <mxGeometry width="50" height="50" relative="1" as="geometry">
            <mxPoint x="400" y="126.5" as="sourcePoint" />
            <mxPoint x="430" y="62.5" as="targetPoint" />
          </mxGeometry>
        </mxCell>
        <mxCell id="3m3be9xizB8azZANUTa2-49" style="edgeStyle=orthogonalEdgeStyle;rounded=0;orthogonalLoop=1;jettySize=auto;html=1;entryX=1;entryY=0.75;entryDx=0;entryDy=0;fontSize=12;" edge="1" parent="3m3be9xizB8azZANUTa2-61" source="3m3be9xizB8azZANUTa2-47" target="3m3be9xizB8azZANUTa2-14">
          <mxGeometry relative="1" as="geometry">
            <Array as="points">
              <mxPoint x="700" y="462.5" />
              <mxPoint x="700" y="157.5" />
            </Array>
          </mxGeometry>
        </mxCell>
        <mxCell id="3m3be9xizB8azZANUTa2-50" value="Yes/No" style="edgeLabel;html=1;align=center;verticalAlign=middle;resizable=0;points=[];fontSize=12;" vertex="1" connectable="0" parent="3m3be9xizB8azZANUTa2-49">
          <mxGeometry x="-0.523" y="-2" relative="1" as="geometry">
            <mxPoint as="offset" />
          </mxGeometry>
        </mxCell>
        <mxCell id="3m3be9xizB8azZANUTa2-51" value="Data lake" style="strokeWidth=2;html=1;shape=mxgraph.flowchart.database;whiteSpace=wrap;fillColor=#4DA1F5;fontSize=12;" vertex="1" parent="3m3be9xizB8azZANUTa2-61">
          <mxGeometry x="384" y="362.5" width="60" height="70" as="geometry" />
        </mxCell>
        <mxCell id="3m3be9xizB8azZANUTa2-54" value="Yes" style="edgeStyle=orthogonalEdgeStyle;rounded=0;orthogonalLoop=1;jettySize=auto;html=1;fontSize=12;" edge="1" parent="3m3be9xizB8azZANUTa2-61" source="3m3be9xizB8azZANUTa2-47" target="3m3be9xizB8azZANUTa2-51">
          <mxGeometry relative="1" as="geometry" />
        </mxCell>
        <mxCell id="3m3be9xizB8azZANUTa2-60" value="Audit log Job status" style="shape=note;whiteSpace=wrap;html=1;backgroundOutline=1;darkOpacity=0.05;shadow=1;fillColor=#F6F6F6;size=9;fontSize=12;" vertex="1" parent="3m3be9xizB8azZANUTa2-61">
          <mxGeometry x="410" y="82.5" width="70" height="30" as="geometry" />
        </mxCell>
        <mxCell id="3m3be9xizB8azZANUTa2-55" value="Yes" style="edgeStyle=orthogonalEdgeStyle;rounded=0;orthogonalLoop=1;jettySize=auto;html=1;fontSize=12;" edge="1" parent="3m3be9xizB8azZANUTa2-61" source="3m3be9xizB8azZANUTa2-25" target="3m3be9xizB8azZANUTa2-51">
          <mxGeometry relative="1" as="geometry" />
        </mxCell>
      </root>
    </mxGraphModel>
  </diagram>
</mxfile>
